<?xml version="1.0" encoding="utf-8"?>
<!-- Generator: Adobe Illustrator 15.0.0, SVG Export Plug-In . SVG Version: 6.00 Build 0)  -->
<!DOCTYPE svg PUBLIC "-//W3C//DTD SVG 1.1//EN" "http://www.w3.org/Graphics/SVG/1.1/DTD/svg11.dtd">
<svg version="1.1"
	 id="svg2" xmlns:dc="http://purl.org/dc/elements/1.1/" xmlns:cc="http://creativecommons.org/ns#" xmlns:rdf="http://www.w3.org/1999/02/22-rdf-syntax-ns#" xmlns:svg="http://www.w3.org/2000/svg" xmlns:sodipodi="http://sodipodi.sourceforge.net/DTD/sodipodi-0.dtd" xmlns:inkscape="http://www.inkscape.org/namespaces/inkscape" inkscape:version="0.91 r13725" sodipodi:docname="plattsoft_favicon.svg"
	 xmlns="http://www.w3.org/2000/svg" xmlns:xlink="http://www.w3.org/1999/xlink" x="0px" y="0px" width="1000px" height="740px"
	 viewBox="0 0 1000 740" enable-background="new 0 0 1000 740" xml:space="preserve">
<sodipodi:namedview  id="base" pagecolor="#ffffff" inkscape:cy="291.91699" inkscape:cx="220.57597" inkscape:zoom="0.5" borderopacity="1.0" showgrid="false" bordercolor="#666666" inkscape:window-maximized="1" inkscape:window-y="24" inkscape:window-x="0" inkscape:window-height="744" inkscape:window-width="1366" inkscape:current-layer="layer1" inkscape:document-units="px" inkscape:pageshadow="2" inkscape:pageopacity="0.0">
	</sodipodi:namedview>
<g id="layer1" transform="translate(0,-312.36218)" inkscape:label="Layer 1" inkscape:groupmode="layer">
	<rect id="rect3051" x="0" y="312.362" fill="#FFFFFF" width="1000" height="740"/>
	
		<g id="g4538-1-27" transform="matrix(0.21652394,0,0,0.20278806,-397.31961,629.3468)" inkscape:export-ydpi="90" inkscape:export-xdpi="90" inkscape:export-filename="/home/seta/Dropbox/Backup/!design/99Designs/Plattsoft/favicon.png">
		<path id="path7954" inkscape:connector-curvature="0" fill="#2980B9" d="M3581.39-102.916
			c-1.035,70.595-1.337,230.021-0.604,352.927c1.554,267.552,2.587,341.834,10.61,354.952
			c14.146,23.029,247.471,182.269,452.031,301.953l0,0c50.029,29.241,92.684,53.184,94.797,53.184
			c2.156,0,3.838-137.873,3.752-306.412l-0.131-419.056C4109.111,232.376,3720.911-4.645,3581.39-102.916z"/>
		<path id="path7956" inkscape:connector-curvature="0" fill="#E67E22" d="M4719.424-113.323
			c-112.651,81.693-461.861,296.148-555.452,340.033l-0.131,425.321h0.045c-0.09,166.974,1.42,303.609,3.319,303.609
			c19.236,0,479.807-282.43,533.158-327.466c10.996-9.304,12.159-16.027,16.859-97.72c2.76-48.215,4.141-224.815,3.581-343.072
			L4719.424-113.323z"/>
		<path id="path7948" inkscape:connector-curvature="0" fill="#E67E22" d="M4146.031-493.051
			c-35.281,0-594.401,344.593-612.126,377.241c-17.682,32.696-19.365,721.832-1.811,754.531
			c17.553,32.65,574.992,377.193,610.271,377.193c35.278,0,594.396-344.639,612.122-377.285
			c17.729-32.694,19.367-721.835,1.813-754.485C4738.746-148.552,4181.31-493.051,4146.031-493.051L4146.031-493.051z
			 M4145.815-408.733c31.354,0,526.469,306.049,542.038,335.061c15.614,29.012,14.148,641.107-1.592,670.121
			c-15.745,29.01-512.37,335.104-543.68,335.104c-31.355,0-526.473-306.003-542.085-335.017
			c-15.569-29.01-14.103-641.15,1.639-670.162C3617.878-102.639,4114.46-408.733,4145.815-408.733z"/>
	</g>
</g>
</svg>
